<?xml version="1.0" encoding="utf-8"?>
<!-- Generator: Adobe Illustrator 14.0.0, SVG Export Plug-In . SVG Version: 6.00 Build 43363)  -->
<!DOCTYPE svg PUBLIC "-//W3C//DTD SVG 1.1//EN" "http://www.w3.org/Graphics/SVG/1.1/DTD/svg11.dtd">
<svg version="1.1" id="Layer_1" xmlns="http://www.w3.org/2000/svg" xmlns:xlink="http://www.w3.org/1999/xlink" x="0px" y="0px"
	 width="283.465px" height="283.465px" viewBox="0 0 283.465 283.465" enable-background="new 0 0 283.465 283.465"
	 xml:space="preserve">
<path id="עיגול_חיצוני" d="M3.732,141.734c0,76.093,61.907,137.998,138.002,137.998
	c76.093,0,137.998-61.905,137.998-137.998c0-76.095-61.905-138.002-137.998-138.002C65.64,3.732,3.732,65.64,3.732,141.734z"/>
<path id="עיגול_פנימי" fill="#FFFFFF" d="M25.158,141.734c0-64.281,52.295-116.579,116.576-116.579
	c64.277,0,116.574,52.298,116.574,116.579c0,64.281-52.297,116.577-116.574,116.577C77.454,258.312,25.158,206.016,25.158,141.734z"
	/>
<path d="M133.58,38.439c-12.135,1.337-16.577,9.793-16.577,9.793s-8.002-4.568-17.624-1.16
	c-9.622,3.409-13.221,14.434-13.221,14.434s-12.363-0.354-18.116,6.43c-2.921,3.444-7.866,17.688,6.231,22.417
	c8.265,2.774,19.616-4.406,24.56-7.754c6.06-4.103,24.828-10.307,39.309-10.307c14.089,0,25.566,0.833,44.991,11.625
	c6.472,3.596,12.191,4.305,17.001,2.107c5.541-2.532,8.398-8.437,8.914-10.897c0.913-4.391-0.211-9.883-4.089-13.125
	c-9.379-7.846-17.167-5.298-17.167-5.298s-1.87-7.313-9.33-10.744c-11.085-5.1-21.705-1.486-21.705-1.486
	S149.199,36.719,133.58,38.439z"/>
<path fill="#FFFFFF" d="M137.125,42.352l1.544-2.061l1.544,2.061c0,0,0,9.216,0,11.068c1.739-2.291,4.677-6.258,4.677-6.258
	l2.092-0.628l0.628,2.09c0,0-4.353,6.063-7.397,8.9c0,0.264,0,2.654,0,3.745c3.932-2.702,9.665-8.538,11.64-10.678
	c1.196-0.073,2.181-0.086,2.181-0.086l0.087,2.182c0,0-8.878,9.557-13.908,12.23c0,0.306,0,1.348,0,1.858
	c0.671-0.014,3.713-0.083,3.949-0.088c8.34-5.646,15.65-15.226,15.65-15.226l2.162-0.298l0.299,2.163c0,0-5.87,7.683-13.18,13.526
	c1.121,0.079,2.926,0.205,2.926,0.205c5.622-2.796,13.125-11.631,13.125-11.631l2.178-0.187l0.186,2.176
	c0,0-5.356,6.306-10.777,10.233c1.179,0.195,3.486,0.576,3.711,0.614c5.19-2.444,11.473-10.287,11.473-10.287l2.168-0.248
	l0.247,2.17c-0.197,0.248-4.7,5.846-9.567,9.332c1.097,0.294,3.689,0.985,3.927,1.051c6.421-2.598,12.285-9.042,12.344-9.107
	l2.182-0.112l0.114,2.178c-0.201,0.221-4.746,5.195-10.463,8.425c1.069,0.406,3.625,1.376,3.88,1.473
	c7.169-2.615,10.692-7.756,10.692-7.756l2.139-0.433l0.438,2.137c0,0-3.149,4.652-9.477,7.766c0.881,0.454,2.654,1.365,2.654,1.365
	c0.003,0,0.338,0.181,0.338,0.181c5.438-1.867,11.999-7.728,11.999-7.728l2.183-0.11l0.109,2.18c0,0-5.704,4.841-10.481,7.314
	c5.933,2.015,10.725,0.578,14.211-4.402c0.822-0.146,2.305-0.373,2.305-0.373s0.128,0.999,0.226,2.144
	c-5.002,7.141-12.575,8.576-21.342,4.042c-0.047-0.025-1.065-0.564-1.065-0.564c-3.244-1.837-20.627-10.892-44.659-8.864
	c-21.259,1.792-35.485,7.592-43.673,12.141C84.74,86.96,77.429,88.801,69.7,82.261l-0.182-2.177c0,0,1.046-0.106,2.177-0.18
	c4.008,3.391,7.942,4.191,12.952,2.717c-3.369-2.102-9.634-5.281-11.959-8.324l0.286-2.166c0,0,1.067,0.126,2.165,0.29
	c2.557,3.343,10.783,7.415,13.181,8.832c0.33-0.165,3.521-1.771,3.521-1.771s0.191-0.103,0.381-0.204
	c-3.42-2.083-8.993-5.694-12.078-8.962c0.014-0.898,0.062-2.183,0.062-2.183s1.175,0.029,2.183,0.064
	c3.414,3.615,10.665,8.011,13.054,9.415c0.312-0.145,2.825-1.288,3.806-1.735c-4.273-2.426-11.155-6.624-14.13-10.157l0.187-2.176
	l2.176,0.187c3.337,3.961,13.168,9.429,15.414,10.647c0.295-0.101,3.973-1.391,5.166-1.809c-4.019-2.377-10.549-6.455-14.269-9.997
	l-0.053-2.185l2.183-0.053c4.512,4.296,14.016,9.787,16.149,10.998c0.269-0.066,3.47-0.887,4.735-1.208
	c-3.972-2.432-13.871-9.343-18.524-13.481c-0.031-0.962-0.128-2.18-0.128-2.18l2.18-0.127c5.875,5.219,18.747,13.592,20.843,14.819
	c0.256-0.046,4.413-0.765,5.819-1.009c-4.826-3.315-12.65-8.856-16.596-12.622c-0.042-0.949-0.051-2.185-0.051-2.185
	s0.75-0.052,2.184-0.05c4.835,4.616,16.48,12.519,19.008,14.218c0.287-0.029,5.212-0.546,5.212-0.546
	c0.002,0,0.311-0.018,0.372-0.022c0-0.503,0-1.73,0-2.061c-2.785-1.557-11.269-6.448-15.649-10.61
	c-0.01-0.98-0.055-2.183-0.055-2.183s1.269-0.057,2.182-0.057c3.534,3.359,10.264,7.406,13.522,9.285c0-1.008,0-4.032,0-4.358
	c-2.469-1.794-9.921-7.245-12.094-9.201c-0.056-0.713-0.118-2.18-0.118-2.18s1.317-0.078,2.182-0.116
	c1.664,1.498,6.743,5.264,10.03,7.671C137.125,51.769,137.125,42.352,137.125,42.352z"/>
<path d="M122.215,89.86c0.823,0.216,1.795,0.472,2.277,0.599c0,0,2.189,0.727,3.429,1.37c1.778,0.86,3.305,1.843,4.526,2.939
	c8.66-3.198,20.165-2.254,28.733,2.403c0,0,1.399,0.862,1.927,1.185c3.954-3.642,13.923-11.154,16.16-12.994
	c-3.644-1.931-7.076-3.534-10.45-4.869c-2.786,1.964-3.982,2.158-6.795,2.094c-5.108-0.516-7.201-4.058-7.864-6.185
	c-5.182-0.828-10.164-1.021-16.015-1.021c-4.231,0-9.071,0.559-14.366,1.635c-0.926,2.801-3.566,5.537-7.808,5.956
	c-2.455,0.097-4.43-0.356-6.489-1.956c-3.894,1.42-7.061,2.887-8.914,4.144c0,0-3.709,2.307-4.869,3.031
	c0.788,1.085,2.527,3.903,2.959,4.487c2.824-1.481,6.002-2.498,9.445-3.092C108.101,89.586,116.848,88.537,122.215,89.86"/>
<path fill="#FFFFFF" d="M165.042,92.129c-1.834,0.547-9.298,2.237-14.878-4.076l0,0c-0.562-0.637-0.503-1.616,0.133-2.178
	c0.637-0.565,1.616-0.503,2.179,0.131c4.29,4.85,9.786,3.732,11.416,3.256c0.264-0.077,1.936-0.587,2.456,0.74
	C166.867,91.331,165.305,92.052,165.042,92.129z"/>
<path d="M111.035,92.173c-15.69,1.777-20.04,11.629-20.04,11.629s-8.037-3.452-17.896,0.9c-10.358,4.574-10.614,13.25-10.614,13.25
	s-16.422,2.334-19.505,13.624c-0.903,3.303-0.298,6.508,2.358,9.695c6.347,7.615,17.622,6.629,35.486-3.116
	c16.423-8.96,46.965-13.443,64.529-5.552l6.257,2.902c14.832,6.986,28.76,11.979,35.747-0.448
	c2.469-4.391,2.315-10.081-0.688-14.274c-6.799-9.489-18.355-6.872-18.355-6.872s-1.387-10.044-8.607-14.027
	c-8.462-4.599-19.846-5.331-27.689-1.78l-0.275,0.126l-0.197-0.229C127.808,93.661,119.564,91.32,111.035,92.173z"/>
<path d="M104.344,133.402c-1.294,2.821-3.741,5.043-7.739,5.485c-2.742,0.078-4.695-0.732-5.987-1.693
	c-3.167,1.159-5.972,2.391-8.316,3.67c-3.91,2.133-7.375,3.767-10.63,5.078c4.141,1.646,5.043,2.033,12.319,4.028
	c2.512,3.478,4.744,6.914,6.995,8.854c0.313-0.2,0.948-0.601,0.948-0.601c7.65-4.336,18.988-3.49,25.922-0.495
	c4.438-4.397,10.063-7.327,16.3-8.51c2.801-0.514,5.855-0.609,6.611-0.606c2.952,0.015,5.885,0.413,8.729,1.158
	c0.239-1.217,0.239-1.902,0.025-3.02c2.446-1.33,6.323-3.917,7.548-5.34c-1.063-0.487-6.745-3.097-6.745-3.097
	c-0.027-0.012-6.24-2.896-6.24-2.896s-1.933-0.756-1.947-0.762c-1.509,1.507-3.734,2.455-6.79,2.408
	c-3.643-0.326-6.314-2.226-7.724-5.294C120.348,131.28,112.315,131.842,104.344,133.402z"/>
<path fill="#FFFFFF" d="M112.69,97.104l1.552-1.865l1.537,1.865c0,0,0,10.733,0,12.088c3.741-2.668,8.828-8.191,8.828-8.191
	l2.481-0.352l-0.135,2.361c0,0-6.284,6.999-11.174,9.947c0,0.365,0,4.662,0,5.713c9.411-4.66,15.219-13.374,15.277-13.463
	c0.002,0,2.386-0.439,2.386-0.439l0.208,2.113c0,0-6.792,10.394-17.872,15.252c0,0.208,0,0.4,0,0.691
	c0.743-0.002,7.292-0.013,7.553-0.013c8.346-5.219,16.878-15.723,16.878-15.723l2.504-0.355l-0.1,2.293
	c0,0-6.866,8.438-14.428,14.15c1.358,0.17,4.979,0.628,5.258,0.663c7.877-5.292,13.969-14.604,13.969-14.604l2.417-0.507
	l0.179,2.178c0,0-5.281,8.056-12.443,13.721c1.091,0.255,3.854,0.904,4.153,0.976c5.777-3.927,14.055-12.916,14.405-13.299
	c0.004-0.002,2.399-0.13,2.399-0.13l-0.115,2.209c-0.294,0.324-7.082,7.722-12.948,12.295c1.006,0.328,3.787,1.232,4.102,1.337
	c7.102-4.697,12.563-11.333,12.794-11.614c0-0.002,2.382-0.203,2.382-0.203l0.025,2.138c0,0-4.97,6.104-11.682,10.983
	c0.805,0.317,2.256,0.892,2.528,0.999c6.244-3.531,10.452-9.546,10.452-9.546l2.572-0.355l-0.024,2.104
	c-0.156,0.226-3.774,5.395-9.532,9.268c0.802,0.354,2.348,1.035,2.348,1.035s0.814,0.348,0.88,0.375
	c4.522-2.382,9.347-8.473,9.347-8.473l2.327-0.252l0.107,2.152c0,0-3.881,4.898-8.154,7.938c0.745,0.226,1.697,0.515,1.891,0.572
	c5.854-2.762,9.626-8.379,9.626-8.379l2.181-0.601c0,0,0.289,1.577,0.442,2.231c-0.095,0.147-3.104,4.541-7.408,7.485
	c4.848,0.134,7.374-1.226,10.537-5.656l2.247-0.351l0.266,2.146c-5.854,8.202-12.355,9.086-23.872,4.344
	c-0.035-0.015-1.686-0.718-1.686-0.718c-4.758-2.144-11.156-4.861-18.47-6.849c-0.063-0.018-8.136-1.805-8.136-1.805
	c-6.389-1.084-12.656-1.417-19.22-1.024c-16.337,0.975-27.725,6.195-40.915,12.919l-4.515,2c-11.564,4.32-17.472,0.095-21.742-4.602
	l-0.224-2.433c0,0,1.127,0.225,2.51,0.355c3.28,3.609,7.409,6.612,15.012,4.803c-3.288-1.932-8.399-5.149-11.457-8.208l-0.142-2.262
	l2.324,0.079c3.73,3.728,11.417,8.1,13.259,9.123c0.307-0.137,3.569-1.606,3.569-1.606s0.229-0.115,0.444-0.224
	c-3.133-1.935-8.294-5.225-11.78-8.016l-0.733-2.414c0,0,1.385,0,2.663,0.002c4.084,3.269,10.861,7.443,13.096,8.798
	c0.292-0.143,1.94-0.95,2.717-1.329c-3.478-2.442-9.306-6.743-13.113-10.732l-0.147-2.341l2.382,0.21
	c4.307,4.51,11.688,9.697,14.099,11.346c0.331-0.144,2.844-1.244,3.753-1.642c-4.096-2.978-12.664-9.379-15.626-12.937
	c-0.132-0.841-0.262-2.451-0.262-2.451s1.384,0.258,2.634,0.475c3.186,3.824,14.132,11.754,16.633,13.544
	c0.342-0.12,3.915-1.369,4.972-1.739c-3.74-2.843-10.044-7.859-14.365-12.537c0.01-0.871-0.022-2.448-0.022-2.448
	s0.869,0.128,2.294,0.353c5.009,5.427,13.179,11.619,15.767,13.534c0.322-0.073,4.21-0.956,5.484-1.247
	c-4.72-3.419-14.564-10.794-18.782-15.779l-0.319-2.398l2.677,0.403c4.81,5.688,17.871,15.041,20.687,17.033
	c0.295-0.035,4.891-0.524,5.531-0.593c0-0.346,0-0.727,0-0.968c-3.119-1.847-11.541-6.597-18.755-13.816l-0.373-2.276l2.555,0.094
	c5.997,5.998,12.769,10.027,16.573,12.379c0-1.09,0-5.025,0-5.401c-7.074-3.755-12.043-10.593-12.043-10.593l0.052-2.313
	l2.458,0.516c0,0,3.966,5.34,9.533,8.792C112.69,108.147,112.69,97.104,112.69,97.104z"/>
<path fill="#FFFFFF" d="M106.541,137.372c1.225,0.953,0.258,2.168,0.258,2.168c-3.088,3.93-9.206,5.779-14.231,4.302
	c-0.816-0.241-1.285-1.1-1.045-1.918c0.241-0.815,1.101-1.286,1.916-1.045c3.821,1.125,8.623-0.302,10.936-3.245l0.049-0.063
	l-0.05,0.063C104.373,137.634,105.316,136.419,106.541,137.372z"/>
<path fill="#FFFFFF" d="M139.712,137.88c0,0,1.221-0.913,2.177,0.139c1.075,1.268-0.139,2.182-0.139,2.182
	c-1.739,1.522-4.519,2.206-7.638,1.877c-3.631-0.383-6.911-1.998-8.565-4.211c-0.507-0.684-0.365-1.652,0.315-2.162
	c0.684-0.508,1.653-0.365,2.162,0.316c1.117,1.5,3.695,2.7,6.413,2.988l0,0C136.7,139.245,138.622,138.835,139.712,137.88z"/>
<path fill="#FFFFFF" d="M166.063,83.96c0,0,1.292-0.808,2.158,0.321c0.966,1.352-0.32,2.162-0.32,2.162
	c-1.859,1.373-4.687,1.822-7.768,1.235c-3.586-0.682-6.721-2.565-8.186-4.909c-0.448-0.723-0.226-1.676,0.495-2.126
	c0.724-0.45,1.677-0.227,2.128,0.493c0.988,1.588,3.458,2.998,6.143,3.512l0,0C162.948,85.071,164.897,84.822,166.063,83.96z"/>
<path fill="#FFFFFF" d="M122.913,81.554c0,0,0.828-1.279,2.09-0.623c1.449,0.814,0.627,2.092,0.627,2.092
	c-1.103,2.031-3.473,3.638-6.513,4.412c-3.538,0.901-7.174,0.524-9.494-0.978c-0.712-0.465-0.916-1.423-0.454-2.137
	c0.463-0.713,1.423-0.915,2.137-0.455c1.566,1.02,4.402,1.251,7.051,0.577l0,0C120.563,83.88,122.222,82.829,122.913,81.554z"/>
<path fill="#FFFFFF" d="M132.56,147.21c-2.446-0.397-5.197-1.367-8.217-3.527c-0.474-0.339-0.699-0.899-0.634-1.444
	c0.032-0.248,0.122-0.493,0.278-0.71c0.496-0.691,1.462-0.852,2.154-0.356c8.699,6.229,14.437,1.743,14.679,1.55v-0.001
	c0.664-0.53,1.635-0.427,2.169,0.23c0.273,0.339,0.379,0.759,0.332,1.16c-0.045,0.381-0.233,0.747-0.554,1.007
	c-0.039,0.034-2.218,1.708-5.793,2.21C134.074,147.649,132.56,147.21,132.56,147.21z"/>
<path d="M118.647,161.137l-0.216,0.243l-0.286-0.161c-4.257-2.421-16.252-5.093-24.689-0.309c-5.1,2.889-7.768,7.962-7.927,15.068
	l-0.008,0.345c0,0-12.838,1.778-18.019,9.797c-2.521,3.904-2.953,8.69-1.286,14.225c1.248,4.143,3.97,7.003,8.093,8.492
	c7.812,2.828,18.548,0.044,24.687-4.015c9.276-6.128,28.991-12.983,41.494-12.983c14.44,0,29.442,3.778,50.154,12.629
	c6.407,2.739,14.217,1.644,18.66-0.876c4.357-2.472,7.357-6.149,8.162-11.035c0.786-4.789-0.913-8.923-4.452-12.707
	c-5.854-6.254-15.674-4.915-15.674-4.915s-2.943-10.962-15.161-15.557c-11.196-4.213-21.677-0.041-21.677-0.041
	s-7.808-7.605-19.751-7.636C131.893,151.679,124.042,155.014,118.647,161.137z"/>
<path d="M126.969,196.845c-1.189,3.48-4.313,5.862-8.102,6.151c-2.251,0-3.906-0.289-5.945-1.669
	c-4.949,1.967-9.185,4.063-12.223,6.073c0,0-2.815,1.548-3.601,1.98c2.409,4.983,9.844,10.301,9.844,10.301
	S96.89,225.913,93.78,232.44c0.83,0,21.001,0,21.24,0c1.581-1.791,3.789-2.854,6.142-2.854c2.35,0,4.556,1.063,6.14,2.854
	c0.242,0,25.664,0,25.908,0c1.582-1.791,3.791-2.854,6.142-2.854c2.352,0,4.559,1.063,6.139,2.854c0.239,0,23.616,0,24.525,0
	c-5.96-11.253-12.965-17.848-12.965-17.848s5.588-6.605,6.834-9.572c-5.194-2.087-10.069-3.828-14.879-5.309
	c-1.789,1.516-4.268,2.352-6.634,2.224c-3.106-0.144-6.617-2.061-8.077-5.797c-4.813-0.809-9.335-1.211-13.804-1.211
	C136.802,194.928,132.123,195.598,126.969,196.845z"/>
<path fill="#FFFFFF" d="M151.056,207.856L151.056,207.856c-0.528-0.665-0.417-1.641,0.25-2.171c0.667-0.526,1.638-0.413,2.167,0.247
	c4.978,6.267,11.89,4.77,15.319,2.23c0.684-0.506,1.519-0.55,2.16,0.324c0.785,1.265-0.322,2.158-0.322,2.158
	C166.235,213.896,157.393,215.836,151.056,207.856z"/>
<path fill="#FFFFFF" d="M147.948,222.116c2.992-3.313,6.849-5.087,11.159-5.133c5.266-0.056,10.074,2.526,12.504,5.108
	c0.582,0.622,0.551,1.603-0.066,2.183c-0.617,0.582-1.597,0.554-2.183-0.067c-1.966-2.089-5.89-4.18-10.227-4.135
	c-3.418,0.033-6.497,1.459-8.895,4.113c0,0-0.884,1.188-2.179,0.11C146.997,223.329,147.948,222.116,147.948,222.116z"/>
<path fill="#FFFFFF" d="M148.223,229.057c3.512-4.776,7.916-5.852,10.991-5.917c5.001-0.1,9.252,2.319,11.089,4.61
	c0.53,0.667,0.421,1.641-0.244,2.169c-1.269,0.957-2.171-0.239-2.171-0.239c-1.385-1.732-4.871-3.529-8.611-3.451
	c-2.379,0.048-5.8,0.894-8.568,4.66c0,0-0.918,1.119-2.159,0.328C147.587,230.435,147.716,229.745,148.223,229.057z"/>
<path fill="#FFFFFF" d="M110.121,228.458c3.765-4.579,8.221-5.414,11.295-5.314c5,0.172,9.113,2.817,10.824,5.204
	c0.493,0.695,0.33,1.663-0.362,2.154c-1.318,0.887-2.154-0.356-2.154-0.356c-1.289-1.805-4.673-3.789-8.412-3.913
	c-2.378-0.082-5.839,0.578-8.808,4.188c0,0-0.978,1.069-2.173,0.211C109.413,229.8,109.579,229.119,110.121,228.458z"/>
<path fill="#FFFFFF" d="M126.557,201.343c0,0,0.84-1.244,2.018-0.835c0.926,0.284,1.161,1.234,0.833,2.021
	c-0.824,1.978-3.024,3.864-5.739,4.923c-3.386,1.319-7.087,1.198-10.424-0.341c0,0-1.73-0.822-1.044-2.165
	c0.566-1.354,2.335-0.639,2.335-0.639c3.469,1.598,6.507,0.855,8.01,0.27C124.731,203.725,126.157,202.303,126.557,201.343z"/>
<path fill="#FFFFFF" d="M131.509,205.657c1.111,0.906,0.169,2.293,0.169,2.293c-3.063,4.397-11.043,7.197-18.041,4.35
	c-0.791-0.319-1.169-1.227-0.848-2.013c0.323-0.787,1.225-1.165,2.013-0.848c5.628,2.291,11.968,0.165,14.345-3.254l0,0
	C129.147,206.186,130.398,204.757,131.509,205.657z"/>
<path fill="#FFFFFF" d="M109.015,142.21c1.111,0.906,0.17,2.292,0.17,2.292c-3.063,4.398-11.043,7.198-18.042,4.349
	c-0.79-0.317-1.169-1.222-0.848-2.011c0.323-0.789,1.225-1.168,2.013-0.851c5.63,2.294,11.968,0.166,14.345-3.252l0,0
	C106.653,142.738,107.904,141.31,109.015,142.21z"/>
<path fill="#FFFFFF" d="M107.318,225.283L107.318,225.283c-0.564-0.659-0.465-1.633,0.222-2.17
	c11.768-9.198,22.325-6.091,28.281-0.108c0,0,1.751,1.511,0.511,2.647c-1.241,1.135-2.842-0.523-2.842-0.523
	c-2.407-2.411-11.237-9.519-23.899,0.378C108.903,226.044,107.884,225.945,107.318,225.283z"/>
<path fill="#FFFFFF" d="M152.659,202.494L152.659,202.494c-0.566-0.637-0.98-1.623-0.134-2.369c1.273-1.078,2.43,0.3,2.43,0.3
	c2.457,2.73,5.131,4.204,7.735,4.271c2.029,0.057,3.933-0.754,5.511-2.33c0,0,1.202-0.968,2.186,0
	c0.982,0.967-0.001,2.185-0.001,2.185c-2.162,2.158-4.917,3.313-7.775,3.236C159.136,207.691,155.697,205.865,152.659,202.494z"/>
<path fill="#FFFFFF" d="M138.61,159.021l1.545-1.545l1.543,1.545c0,0,0,11.008,0,12.535c4.653-3.832,7.04-10.294,7.066-10.366
	l1.971-0.938l0.943,1.965c-0.133,0.378-3.306,9.148-9.98,13.184c0,0.345,0,4.393,0,5.396c9.776-4.073,16.917-16.443,16.988-16.571
	c1.027-0.313,2.104-0.596,2.104-0.596s0.34,1.185,0.589,2.102c-0.329,0.594-8.19,14.444-19.681,18.435c0,0.322,0,1.096,0,1.537
	c0.707,0.039,7.555,0.411,7.904,0.433c7.373-6.745,15.666-17.148,16.016-17.585l2.17-0.252c0,0,0.264,1.602,0.252,2.169
	c-0.075,0.094-7.337,9.219-14.458,16.146c1.006,0.15,3.043,0.459,3.287,0.496c7.55-4.6,16.331-14.707,16.406-14.794
	c1.067-0.094,2.178-0.163,2.178-0.163l0.166,2.176c-0.267,0.312-7.515,8.632-14.482,13.633c1.167,0.278,4.175,0.987,4.479,1.062
	c9.177-6.171,17.141-16.822,17.141-16.822l2.157-0.326c0,0,0.217,1.463,0.327,2.158c-0.331,0.448-7.102,9.442-15.842,16.065
	c1.021,0.326,3.919,1.246,4.255,1.353c8.06-6.095,12.476-12.657,12.52-12.721c0.876-0.169,2.139-0.445,2.139-0.445
	s0.315,1.468,0.444,2.137c-0.165,0.252-4.078,6.147-11.655,12.251c0.748,0.28,1.966,0.734,2.222,0.83
	c6.539-3.595,12.927-11.716,13.167-12.033c0.633-0.108,2.161-0.319,2.161-0.319l0.317,2.158c-0.208,0.28-5.764,7.408-12.074,11.616
	c0.923,0.387,3.291,1.378,3.62,1.515c8.551-6.031,12.223-12.209,12.255-12.264c0.837-0.293,2.096-0.615,2.096-0.615
	s0.447,1.578,0.617,2.091c-0.117,0.225-3.589,6.091-11.483,12.062c1.996,0.618,3.979,0.994,5.902,1.048
	c4.601-4.391,9.457-10.553,10.05-11.307c0.005-0.007,2.172-0.276,2.172-0.276c0.004,0.002,0.268,2.172,0.268,2.172
	c-0.042,0.05-3.417,4.403-7.595,8.847c4.914-1.17,8.625-4.074,10.333-6.438c0.904-0.189,2.156-0.348,2.156-0.348
	s0.294,1.35,0.346,2.158c-3.415,4.723-13.562,12.074-27.532,6.047c-13.074-5.641-27.693-10.861-45.942-10.861
	c-13.52,0-30.564,4.995-37.406,9.479c-5.164,3.381-13.856,9.073-24.595,6.958c-2.785-0.548-4.192-0.839-7.226-2.612l-0.553-2.11
	l2.111-0.555c2.47,1.443,3.49,1.633,6.063,2.139c1.73,0.339,3.48,0.468,5.241,0.387c-3.506-1.988-8.787-5.208-12.145-8.409
	l-0.052-2.181c0.002,0,2.181-0.052,2.181-0.052c4.456,4.243,13.069,8.847,15.05,9.881c1.24-0.33,2.518-0.826,3.828-1.385
	c-4.263-2.358-11.217-6.466-15.221-10.289c-0.076-0.817-0.051-2.183-0.051-2.183s1.07-0.053,2.184-0.053
	c4.634,4.424,14.276,9.688,16.549,10.901c0.268-0.161,1.932-1.147,2.702-1.604c-3.374-1.798-10.429-5.74-14.787-9.531l-0.152-2.178
	l2.178-0.15c4.713,4.096,13.085,8.568,15.798,9.973c0.282-0.152,1.477-0.807,2.197-1.2c-3.41-2.084-10.457-6.453-13.655-8.896
	c-0.159-0.887-0.287-2.167-0.287-2.167s0.998-0.135,2.165-0.289c3.539,2.706,12.304,8.068,15.145,9.788
	c0.281-0.108,2.02-0.78,2.935-1.137c-4.334-2.736-11.284-7.254-14.031-9.818l-0.075-2.183l2.181-0.074
	c3.223,3.007,13.38,9.362,15.684,10.788c0.279-0.078,2.959-0.839,4.163-1.183c-4.664-2.682-12.443-7.297-17.793-11.264
	c-0.103-0.882-0.321-2.16-0.321-2.16s1.087-0.138,2.161-0.319c6.81,5.051,17.907,11.328,20.311,12.676
	c0.244-0.048,3.444-0.649,4.852-0.912c-5.096-2.935-13.549-8.084-19.301-13.138c-0.108-0.957-0.139-2.181-0.139-2.181
	s1.156-0.128,2.178-0.139c7.306,6.416,19.667,13.315,22.27,14.744c0.248-0.016,5.435-0.354,6.12-0.402c0-0.452,0-1.319,0-1.644
	c-3.729-1.809-15.361-7.859-21.803-15.858l0.234-2.17l2.17,0.237c5.376,6.671,14.97,12.062,19.398,14.333c0-1.007,0-4.819,0-5.19
	c-2.663-1.589-10.709-6.649-14.076-11.584c0.184-0.954,0.407-2.146,0.407-2.146s1.128,0.161,2.146,0.407
	c2.54,3.721,8.526,7.781,11.522,9.681C138.61,170.45,138.61,159.021,138.61,159.021z"/>
</svg>
